# xmcd
#
# Track frame offsets: 
#        150
#        12086
#        30837
#        40902
#        49544
#        65792
#        83769
#        108441
#        124341
#        140623
#        152187
#        169464
#        186411
#        196448
#        213077
#        223802
#        239962
#        251290
#        266124
#        284717
#        295839
#        306662
#
# Disc length: 4389 seconds
#
# Revision: 0
# Processed by: cddbd v1.5.2PL0 Copyright (c) Steve Scherf et al.
# Submitted via: ExactAudioCopy v0.99pb4
#
DISCID=5f112316
DTITLE=Various Artist - Sony ATV Music Publishing Holiday Sampler 2008 [CD
DTITLE=1)
DYEAR=2008
DGENRE=Christmas/Holiday
TTITLE0=Lenka - All My Bells Are Ringing
TTITLE1=Bianca Ryan - Why Couldn't It Be Christmas Everyday
TTITLE2=McGuire Sisters - Christmas Alphabet
TTITLE3=Ron Sexsmith - Maybe This Christmas
TTITLE4=Linda Perry - It's A Merry Time
TTITLE5=Angus and Julia Stone - River
TTITLE6=Herbie Hancock Feat. Corinne Bailey Rae - River
TTITLE7=Fall Out Boy - Yule Shoot Your Eye Out
TTITLE8=Taylor Swift - Silent Night
TTITLE9=Boyz II Men - Silent Night
TTITLE10=Sarah McLachlan - Silent Night
TTITLE11=The Kinks - Father Christmas
TTITLE12=The Temptations - Silver Bells
TTITLE13=Venus Hum - Silver Bells
TTITLE14=Stevie Wonder - Silver Bells
TTITLE15=Cyndi Lauper - Christmas Conga
TTITLE16=Brook Benton - This Time Of The Year
TTITLE17=Ray Charles - This Time Of The Year
TTITLE18=Ashanti - Christmas Time Again
TTITLE19=Willie Nelson - Pretty Paper
TTITLE20=Dreams So Real - Red Lights (Merry Christmas)
TTITLE21=Randy Bachman - Taking Care Of Christmas
EXTD=
EXTT0=
EXTT1=
EXTT2=
EXTT3=
EXTT4=
EXTT5=
EXTT6=
EXTT7=
EXTT8=
EXTT9=
EXTT10=
EXTT11=
EXTT12=
EXTT13=
EXTT14=
EXTT15=
EXTT16=
EXTT17=
EXTT18=
EXTT19=
EXTT20=
EXTT21=
PLAYORDER=
